HIERARCHY
ROOT joint_Root
{
	OFFSET 0.0 0.0 0.0
	CHANNELS 6 Xposition Yposition Zposition Zrotation Xrotation Yrotation 
	JOINT Hips
	{
		OFFSET 4.5925 91.4895 -427.239
		CHANNELS 6 Xposition Yposition Zposition Zrotation Xrotation Yrotation 
		JOINT Spine
		{
			OFFSET 15.7357 0.0 0.0
			CHANNELS 6 Xposition Yposition Zposition Zrotation Xrotation Yrotation 
			JOINT Chest
			{
				OFFSET 8.98455 -0.406207 0.0
				CHANNELS 6 Xposition Yposition Zposition Zrotation Xrotation Yrotation 
				JOINT Neck
				{
					OFFSET 16.3773 0.0 0.0
					CHANNELS 6 Xposition Yposition Zposition Zrotation Xrotation Yrotation 
					JOINT Head
					{
						OFFSET 6.45672 0.0 0.0
						CHANNELS 6 Xposition Yposition Zposition Zrotation Xrotation Yrotation 
						End Site
						{
							OFFSET 0.0 0.0 0.0
						}
					}
				}
				JOINT Shoulder_L
				{
					OFFSET 12.9942 -0.242716 4.98039
					CHANNELS 6 Xposition Yposition Zposition Zrotation Xrotation Yrotation 
					JOINT UpperArm_L
					{
						OFFSET 5.34809 0.0 0.0
						CHANNELS 6 Xposition Yposition Zposition Zrotation Xrotation Yrotation 
						JOINT LowerArm_L
						{
							OFFSET 24.3286 1.87007e-05 0.0
							CHANNELS 6 Xposition Yposition Zposition Zrotation Xrotation Yrotation 
							JOINT Hand_L
							{
								OFFSET 22.2916 0.0 0.0
								CHANNELS 6 Xposition Yposition Zposition Zrotation Xrotation Yrotation 
								End Site
								{
									OFFSET 0.0 0.0 0.0
								}
							}
						}
					}
				}
				JOINT Shoulder_R
				{
					OFFSET 12.9945 -0.242716 -4.98039
					CHANNELS 6 Xposition Yposition Zposition Zrotation Xrotation Yrotation 
					JOINT UpperArm_R
					{
						OFFSET -5.34813 0.0 0.0
						CHANNELS 6 Xposition Yposition Zposition Zrotation Xrotation Yrotation 
						JOINT LowerArm_R
						{
							OFFSET -24.3289 0.000322201 0.0
							CHANNELS 6 Xposition Yposition Zposition Zrotation Xrotation Yrotation 
							JOINT Hand_R
							{
								OFFSET -22.2915 -0.000108084 0.0
								CHANNELS 6 Xposition Yposition Zposition Zrotation Xrotation Yrotation 
								End Site
								{
									OFFSET 0.0 0.0 0.0
								}
							}
						}
					}
				}
			}
		}
		JOINT UpperLeg_L
		{
			OFFSET -2.19248 -6.46944 0.0
			CHANNELS 6 Xposition Yposition Zposition Zrotation Xrotation Yrotation 
			JOINT LowerLeg_L
			{
				OFFSET 39.0811 0.0 -1.23785e-05
				CHANNELS 6 Xposition Yposition Zposition Zrotation Xrotation Yrotation 
				JOINT Foot_L
				{
					OFFSET 40.9854 0.0 -1.26872e-05
					CHANNELS 6 Xposition Yposition Zposition Zrotation Xrotation Yrotation 
					JOINT Toes_L
					{
						OFFSET 11.7543 0.0 0.0
						CHANNELS 6 Xposition Yposition Zposition Zrotation Xrotation Yrotation 
						End Site
						{
							OFFSET 0.0 0.0 0.0
						}
					}
				}
			}
		}
		JOINT UpperLeg_R
		{
			OFFSET -2.19251 6.46944 0.0
			CHANNELS 6 Xposition Yposition Zposition Zrotation Xrotation Yrotation 
			JOINT LowerLeg_R
			{
				OFFSET -39.0811 -0.00228153 -0.0401928
				CHANNELS 6 Xposition Yposition Zposition Zrotation Xrotation Yrotation 
				JOINT Foot_R
				{
					OFFSET -40.9854 0.0 0.0
					CHANNELS 6 Xposition Yposition Zposition Zrotation Xrotation Yrotation 
					JOINT Toes_R
					{
						OFFSET -11.7543 0.0 0.0
						CHANNELS 6 Xposition Yposition Zposition Zrotation Xrotation Yrotation 
						End Site
						{
							OFFSET 0.0 0.0 0.0
						}
					}
				}
			}
		}
	}
}
MOTION
Frames:	6
Frame Time:	0.0333333
0.000000 0.000000 0.000000 0.000000 0.000000 -0.000000 106.428000 89.621900 177.137000 -79.598600 44.665600 172.182000 15.735700 0.000005 -0.000001 123.270000 82.565800 -124.005000 8.984550 -0.406207 -0.000000 4.757140 8.160900 -1.810390 16.377300 -0.000001 -0.000001 0.628682 3.982620 -0.055337 6.456720 -0.000001 -0.000000 -5.871800 4.054020 -1.560200 12.994200 -0.242716 4.980390 -86.518500 -8.742760 -68.185600 5.348090 -0.000007 -0.000001 -71.488600 42.181300 36.262600 24.328600 0.000019 0.000005 -2.295430 -0.399794 -80.128300 22.291600 -0.000001 0.000005 5.687310 5.499710 -6.522850 12.994500 -0.242716 -4.980390 90.481300 -2.796940 -80.232600 -5.348130 -0.000001 -0.000004 -46.842400 36.085600 -60.275200 -24.328900 0.000322 -0.000009 -14.848100 8.775180 -119.919000 -22.291500 -0.000108 -0.000004 22.550800 5.605520 -11.675300 -2.192480 -6.469440 -0.000000 173.396000 -13.147800 -32.176000 39.081100 -0.000007 -0.000012 -0.012190 0.012348 44.638000 40.985400 -0.000006 -0.000013 5.390050 -8.885720 -69.967800 11.754300 -0.000000 0.000003 -0.007299 -0.082218 -19.924100 -2.192510 6.469440 -0.000001 169.297000 29.737200 -174.545000 -39.081100 -0.002282 -0.040193 -0.048105 0.092241 29.132300 -40.985400 0.000008 0.000006 -4.537730 13.596100 -58.650400 -11.754300 -0.000006 -0.000006 -0.049425 -0.295702 -28.750500
0.000000 0.000000 0.000000 0.000000 0.000000 -0.000000 109.196000 88.533300 174.446000 -78.373500 42.346000 172.236000 15.735700 0.000005 -0.000001 120.876000 82.348500 -121.169000 8.984550 -0.406207 -0.000000 5.428530 7.841410 -0.957962 16.377300 -0.000001 -0.000001 0.179339 4.075370 -0.581562 6.456720 -0.000001 -0.000000 -6.456350 4.044960 -2.682200 12.994200 -0.242716 4.980390 -87.168200 -7.164980 -68.367200 5.348090 -0.000007 -0.000001 -69.187200 35.898500 32.330700 24.328600 0.000019 0.000005 -3.629080 -0.742224 -78.456600 22.291600 -0.000001 0.000005 6.898430 5.473320 -5.498550 12.994500 -0.242716 -4.980390 90.236400 -1.597750 -81.585700 -5.348130 -0.000001 -0.000004 -45.910500 40.900900 -55.658300 -24.328900 0.000322 -0.000009 -14.625700 6.653090 -113.938000 -22.291500 -0.000108 -0.000004 20.968200 5.592720 -10.914800 -2.192480 -6.469440 -0.000000 172.505000 -17.032600 -30.918500 39.081100 -0.000007 -0.000012 -0.008678 0.011112 37.996000 40.985400 -0.000006 -0.000013 4.606230 -9.413760 -71.418800 11.754300 -0.000000 0.000003 -0.007557 -0.084388 -20.012700 -2.192510 6.469440 -0.000001 170.575000 25.069800 -173.550000 -39.081100 -0.002282 -0.040193 -0.048570 0.079415 33.148100 -40.985400 0.000008 0.000006 -6.133050 9.758750 -58.270000 -11.754300 -0.000006 -0.000006 -0.083887 -0.402678 -33.308100
0.000000 0.000000 0.000000 0.000000 0.000000 -0.000000 112.057000 87.096500 171.185000 -77.993500 40.300800 172.454000 15.735700 0.000005 -0.000001 119.171000 82.515400 -119.342000 8.984550 -0.406207 -0.000000 5.349690 7.283560 -0.684327 16.377300 -0.000001 -0.000001 0.110501 4.117890 -0.026226 6.456720 -0.000001 -0.000000 -6.440400 4.384200 -3.373900 12.994200 -0.242716 4.980390 -88.400300 -4.097330 -68.651600 5.348090 -0.000007 -0.000001 -66.858600 29.391200 28.236000 24.328600 0.000019 0.000005 -2.125890 -0.425819 -78.681200 22.291600 -0.000001 0.000005 9.318140 5.461990 -5.074720 12.994500 -0.242716 -4.980390 89.837100 1.240480 -82.513400 -5.348130 -0.000001 -0.000004 -48.777700 45.460700 -45.264900 -24.328900 0.000322 -0.000009 -13.762700 3.686320 -104.704000 -22.291500 -0.000108 -0.000004 20.458500 5.580870 -10.258500 -2.192480 -6.469440 -0.000000 170.257000 -20.173900 -31.267400 39.081100 -0.000007 -0.000012 0.483033 -0.642603 36.932700 40.985400 -0.000006 -0.000013 16.255300 -11.760900 -66.466400 11.754300 -0.000000 0.000003 -0.007188 -0.081279 -19.885800 -2.192510 6.469440 -0.000001 171.005000 21.257900 -173.138000 -39.081100 -0.002282 -0.040193 -0.022256 0.032752 37.947300 -40.985400 0.000008 0.000006 -7.347110 8.157140 -56.583500 -11.754300 -0.000006 -0.000006 -0.164282 -0.582186 -41.288700
0.000000 0.000000 0.000000 0.000000 0.000000 -0.000000 114.947000 85.477300 167.333000 -78.193700 38.372000 173.301000 15.735700 0.000005 -0.000001 116.911000 82.912900 -117.326000 8.984550 -0.406207 -0.000000 4.921310 6.413060 -1.105670 16.377300 -0.000001 -0.000001 0.043388 4.227780 0.617809 6.456720 -0.000001 -0.000000 -5.758010 4.480630 -1.605090 12.994200 -0.242716 4.980390 -89.770200 -0.568478 -67.975900 5.348090 -0.000007 -0.000001 -65.045200 25.517000 22.766400 24.328600 0.000019 0.000005 -3.402360 -0.541743 -80.958500 22.291600 -0.000001 0.000005 11.340600 5.468320 -5.307450 12.994500 -0.242716 -4.980390 89.330800 5.095660 -82.510400 -5.348130 -0.000001 -0.000004 -54.465500 47.974900 -30.879400 -24.328900 0.000322 -0.000009 -12.852800 0.339214 -91.481500 -22.291500 -0.000108 -0.000004 19.879900 5.575000 -9.947250 -2.192480 -6.469440 -0.000000 170.875000 -21.962300 -31.793600 39.081100 -0.000007 -0.000012 -0.165941 0.164580 45.236700 40.985400 -0.000006 -0.000013 15.648600 -10.400300 -69.427700 11.754300 -0.000000 0.000003 -0.004840 -0.059916 -19.014500 -2.192510 6.469440 -0.000001 170.181000 20.144100 -174.522000 -39.081100 -0.002282 -0.040193 0.103065 -0.096040 46.101300 -40.985400 0.000008 0.000006 -6.049740 7.661970 -51.095300 -11.754300 -0.000006 -0.000006 -0.306567 -0.798229 -51.791700
0.000000 0.000000 0.000000 0.000000 0.000000 -0.000000 117.348000 84.128600 163.486000 -78.942100 34.240100 175.416000 15.735700 0.000005 -0.000001 108.934000 83.029800 -109.512000 8.984550 -0.406207 -0.000000 5.456560 4.524710 -1.370440 16.377300 -0.000001 -0.000001 -0.716391 3.732670 0.512533 6.456720 -0.000001 -0.000000 -5.371370 4.110610 0.486794 12.994200 -0.242716 4.980390 -90.969200 2.274690 -66.917900 5.348090 -0.000007 -0.000001 -65.048700 26.073300 13.201700 24.328600 0.000019 0.000005 -4.805820 -0.513675 -83.913200 22.291600 -0.000001 0.000005 14.094400 5.441370 -4.344290 12.994500 -0.242716 -4.980390 88.861800 7.232620 -81.033100 -5.348130 -0.000001 -0.000004 -60.981300 47.582200 -17.682400 -24.328900 0.000322 -0.000009 -11.842100 -3.889440 -72.074600 -22.291500 -0.000108 -0.000004 21.603000 5.631830 -13.355600 -2.192480 -6.469440 -0.000000 172.222000 -15.816700 -29.112400 39.081100 -0.000007 -0.000012 -0.451799 0.365029 51.064700 40.985400 -0.000006 -0.000013 13.520600 -13.384100 -74.600800 11.754300 -0.000000 0.000003 -0.000002 -0.000030 -16.578700 -2.192510 6.469440 -0.000001 169.701000 19.566900 -178.677000 -39.081100 -0.002282 -0.040193 0.287933 -0.181401 57.498100 -40.985400 0.000008 0.000006 -4.298240 5.825650 -39.538500 -11.754300 -0.000006 -0.000006 -0.238993 -0.706260 -47.163200
0.000000 0.000000 0.000000 0.000000 0.000000 -0.000000 118.682000 83.043400 160.168000 -80.886500 28.644800 176.664000 15.735700 0.000005 -0.000001 102.113000 83.090800 -102.956000 8.984550 -0.406207 -0.000000 5.772350 2.907110 -1.829670 16.377300 -0.000001 -0.000001 -1.373130 2.120220 0.473039 6.456720 -0.000001 -0.000000 -6.170940 2.799810 0.794471 12.994200 -0.242716 4.980390 -91.705200 4.104520 -67.415700 5.348090 -0.000007 -0.000001 -65.743900 30.902100 -0.622171 24.328600 0.000019 0.000005 -5.497110 -0.203081 -87.886600 22.291600 -0.000001 0.000005 15.849600 5.442800 -4.384030 12.994500 -0.242716 -4.980390 88.744000 7.290250 -80.197700 -5.348130 -0.000001 -0.000004 -66.790900 44.578200 -4.652100 -24.328900 0.000322 -0.000009 -16.489700 -11.736500 -55.528700 -22.291500 -0.000108 -0.000004 29.968600 5.667560 -17.070400 -2.192480 -6.469440 -0.000000 170.896000 -9.570350 -27.095800 39.081100 -0.000007 -0.000012 -0.610919 0.447801 53.760300 40.985400 -0.000006 -0.000013 12.703700 -15.076500 -78.094000 11.754300 -0.000000 0.000003 -0.000003 -0.000050 -16.579500 -2.192510 6.469440 -0.000001 170.804000 17.184900 172.833000 -39.081100 -0.002282 -0.040193 0.313617 -0.119764 68.907200 -40.985400 0.000008 0.000006 -1.837000 2.407670 -27.769100 -11.754300 -0.000006 -0.000006 -0.023738 -0.187175 -24.228100
